<svg xmlns="http://www.w3.org/2000/svg" fill="none" viewBox="0 0 128 128">
    <path d="M50.4 78.5a75.1 75.1 0 0 0-28.5 6.9l24.2-65.7c.7-2 1.9-3.2 3.4-3.2h29c1.5 0 2.7 1.2 3.4 3.2l24.2 65.7s-13.1-7-28.5-6.9l-11.4-30.5a.64.64 0 0 0-1.2 0L50.4 78.5Z" fill="url(#gradient)"/>
    <path d="M2 108.9c14.7 15.9 38.3 22.4 61.5 22.4s46.8-6.5 61.5-22.4c-15.4 7.4-35.4 12.5-61.5 12.5s-46.1-5.1-61.5-12.5Z" fill="url(#gradient2)"/>
    <defs>
        <linearGradient id="gradient" x1="0" y1="0" x2="1" y2="0">
            <stop offset="0%" stop-color="#D83333"/>
            <stop offset="100%" stop-color="#F041FF"/>
        </linearGradient>
        <linearGradient id="gradient2" x1="0" y1="0" x2="1" y2="0">
            <stop offset="0%" stop-color="#D83333"/>
            <stop offset="100%" stop-color="#F041FF"/>
        </linearGradient>
    </defs>
</svg>
